<svg id="Layer_1" data-name="Layer 1" xmlns="http://www.w3.org/2000/svg" viewBox="0 0 48 48"><title>8. Currency Exchange</title><path d="M32.05,45.14h-.28A9.09,9.09,0,0,1,32.32,27h0a9.09,9.09,0,0,1-.27,18.18ZM32,29a7,7,0,1,0,.22,0Z"/><path d="M16,43a14.41,14.41,0,0,1-6.54-1.59A14.33,14.33,0,0,1,5.53,18.88a1,1,0,0,1,1.41-.05,1,1,0,0,1,0,1.42A12.45,12.45,0,0,0,5,23,12.34,12.34,0,0,0,21.09,39.91a1,1,0,1,1,.82,1.82A14.29,14.29,0,0,1,16,43Z"/><path d="M41.74,30a1,1,0,0,1-.68-.27A1,1,0,0,1,41,28.34a12.32,12.32,0,0,0-3.37-19.4,12.29,12.29,0,0,0-10.73-.26,1,1,0,0,1-1.32-.5,1,1,0,0,1,.5-1.32A14.33,14.33,0,0,1,42.47,29.71,1,1,0,0,1,41.74,30Z"/><path d="M41.74,30a1,1,0,0,1-1-.83l-.49-2.68a1,1,0,1,1,2-.35l.31,1.69,1.66-.3a1,1,0,1,1,.35,2L41.92,30Z"/><path d="M6.74,23.24a1,1,0,0,1-1-.82l-.31-1.69L3.79,21a1,1,0,0,1-.35-2l2.64-.48a1,1,0,0,1,1.16.81l.49,2.67a1,1,0,0,1-.81,1.17Z"/><path d="M30.82,41.05a1,1,0,0,1-1-1v-6a3,3,0,1,1,6,0,1,1,0,1,1-2,0,1,1,0,1,0-2,0v6A1,1,0,0,1,30.82,41.05Z"/><path d="M33.47,37.68H29.23a1,1,0,1,1,0-2h4.24a1,1,0,0,1,0,2Z"/><path d="M34.86,41.05H29.23a1,1,0,0,1,0-2h5.63a1,1,0,0,1,0,2Z"/><path d="M15.31,21.57a9.36,9.36,0,1,1,9.36-9.36A9.36,9.36,0,0,1,15.31,21.57Zm0-16.71a7.36,7.36,0,1,0,7.36,7.35A7.36,7.36,0,0,0,15.31,4.86Z"/><path d="M15.31,17.27a1,1,0,0,1-1-1V10.91l3.47-3.46a1,1,0,0,1,1.41,0,1,1,0,0,1,0,1.42l-2.88,2.87v4.53A1,1,0,0,1,15.31,17.27Z"/><path d="M15.31,12.33a1,1,0,0,1-.71-.3L11.44,8.86a1,1,0,1,1,1.41-1.41L16,10.62a1,1,0,0,1-.71,1.71Z"/><path d="M17.58,12.73H13.06a1,1,0,1,1,0-2h4.52a1,1,0,0,1,0,2Z"/><path d="M17.58,14.89H13.06a1,1,0,0,1,0-2h4.52a1,1,0,0,1,0,2Z"/></svg>